{"title":"Delits Flagrants (Depardon 1995) Rucunus.avi","uid":7850380,"size":734091264,"categoryP":"video","categoryS":"movies","magnet":"?xt=urn:btih:b094a24cfe33e1833c76ba6d3c3faabf3dc72960&amp;dn=Delits+Flagrants+%28Depardon+1995%29+Rucunus.avi&amp;tr=udp%3A%2F%2Ftracker.openbittorrent.com%3A80&amp;tr=udp%3A%2F%2Fopen.demonii.com%3A1337&amp;tr=udp%3A%2F%2Ftracker.coppersurfer.tk%3A6969&amp;tr=udp%3A%2F%2Fexodus.desync.com%3A6969","seeders":1,"leechers":1,"uploader":"Bonie75","files":-1,"time":1353592310,"description":"Delits Flagrants (Depardon 1995) Rucunus.avi\nFormat                                   : AVI\nFormat/Info                              : Audio Video Interleave\nFile size                                : 700 MiB\nDuration                                 : 1h 48mn\nOverall bit rate mode                    : Variable\nOverall bit rate                         : 900 Kbps\nWriting application                      : VirtualDubMod 1.5.1.1a (build 1639/release)\nWriting library                          : VirtualDubMod build 1639/release\n\nVideo\nID                                       : 0\nFormat                                   : MPEG-4 Visual\nFormat profile                           : Simple@L3\nFormat settings, BVOP                    : No\nFormat settings, QPel                    : No\nFormat settings, GMC                     : No warppoints\nFormat settings, Matrix                  : Default (H.263)\nCodec ID                                 : XVID\nCodec ID/Hint                            : XviD\nDuration                                 : 1h 48mn\nBit rate                                 : 763 Kbps\nWidth                                    : 512 pixels\nHeight                                   : 272 pixels\nDisplay aspect ratio                     : 1.882\nFrame rate                               : 25.000 fps\nColor space                              : YUV\nChroma subsampling                       : 4:2:0\nBit depth                                : 8 bits\nScan type                                : Progressive\nCompression mode                         : Lossy\nBits/(Pixel*Frame)                       : 0.219\nStream size                              : 594 MiB (85%)\nWriting library                          : XviD 0.0.09 (UTC 2003-03-25)\n\nAudio\nID                                       : 1\nFormat                                   : MPEG Audio\nFormat version                           : Version 1\nFormat profile                           : Layer 3\nMode                                     : Joint stereo\nMode extension                           : MS Stereo\nCodec ID                                 : 55\nCodec ID/Hint                            : MP3\nDuration                                 : 1h 48mn\nBit rate mode                            : Variable\nBit rate                                 : 128 Kbps\nChannel(s)                               : 2 channels\nSampling rate                            : 48.0 KHz\nCompression mode                         : Lossy\nStream size                              : 96.4 MiB (14%)\nAlignment                                : Aligned on interleaves\nInterleave, duration                     : 24 ms (0.60 video frame)\nInterleave, preload duration             : 551 ms\nWriting library                          : LAME3.93 \nEncoding settings                        : -m j -V 4 -q 2 -lowpass 17.5 --abr 128\n","torrent":{"xt":"urn:btih:b094a24cfe33e1833c76ba6d3c3faabf3dc72960","amp;dn":"Delits+Flagrants+%28Depardon+1995%29+Rucunus.avi","amp;tr":["udp%3A%2F%2Ftracker.openbittorrent.com%3A80","udp%3A%2F%2Fopen.demonii.com%3A1337","udp%3A%2F%2Ftracker.coppersurfer.tk%3A6969","udp%3A%2F%2Fexodus.desync.com%3A6969"],"infoHash":"b094a24cfe33e1833c76ba6d3c3faabf3dc72960","infoHashBuffer":{"type":"Buffer","data":[176,148,162,76,254,51,225,131,60,118,186,109,60,63,170,191,61,199,41,96]},"announce":[],"urlList":[]}}